<svg version="1.1" id="Layer_1" xmlns="http://www.w3.org/2000/svg" xmlns:xlink="http://www.w3.org/1999/xlink" x="0px" y="0px"
	 width="100%" viewBox="0 0 624 683" enable-background="new 0 0 624 683" xml:space="preserve">
<path fill="#FDFDFE" opacity="1.000000" stroke="none" 
	d="
M625.000000,265.000000 
	C625.000000,404.999969 625.000000,544.499939 625.000000,684.000000 
	C417.000031,684.000000 209.000076,684.000000 1.000093,684.000000 
	C1.000062,456.333405 1.000062,228.666809 1.000031,1.000154 
	C208.999893,1.000103 416.999786,1.000103 624.999878,1.000051 
	C625.000000,88.833336 625.000000,176.666672 625.000000,265.000000 
M309.000000,50.000000 
	C309.000000,50.000000 308.986359,50.017330 308.438171,49.488068 
	C305.962830,49.664230 303.487488,49.840393 301.000000,50.000000 
	C301.000000,50.000000 301.014771,50.015182 300.452423,50.128880 
	C300.439728,50.470135 300.427032,50.811394 300.360931,52.067692 
	C300.352844,128.172516 300.339081,204.277328 300.341492,280.382141 
	C300.341949,295.202148 300.405243,310.022186 300.237152,325.353210 
	C300.526398,325.518555 300.815613,325.683899 301.959717,325.996063 
	C304.269989,325.945709 306.580292,325.895386 309.439606,325.798035 
	C309.479187,325.477997 309.518768,325.157990 309.641602,323.926483 
	C309.648254,292.452484 309.667755,260.978516 309.658813,229.504532 
	C309.641968,170.053970 309.608795,110.603409 309.820923,50.632477 
	C309.542236,50.427200 309.263580,50.221924 309.000000,50.000000 
M379.123444,395.279907 
	C379.206879,395.895599 379.290314,396.511322 379.333527,397.782227 
	C379.440430,398.198761 379.547333,398.615265 379.369385,399.921661 
	C379.369934,475.544647 379.370514,551.167603 379.087769,627.582825 
	C379.183929,628.126343 379.280090,628.669861 379.323395,629.878296 
	C379.339752,630.544556 379.356110,631.210754 379.072723,632.537231 
	C379.404144,633.297058 379.735535,634.056824 380.983795,634.975403 
	C389.584015,634.975403 398.184204,634.975403 407.215668,634.975403 
	C407.215668,632.867859 407.215668,631.242126 407.215668,629.616455 
	C407.215118,574.734131 407.222351,519.851807 407.205292,464.969482 
	C407.202789,456.993164 407.083984,449.016937 407.413452,440.658020 
	C408.447815,441.654205 409.670227,442.516510 410.488617,443.666412 
	C425.250153,464.407227 439.958740,485.185791 454.687073,505.950256 
	C484.434540,547.889038 514.180298,589.829102 543.970398,631.737610 
	C544.867310,632.999329 546.225098,634.818237 547.409668,634.850525 
	C556.823120,635.106934 566.246765,634.993408 575.591187,634.993408 
	C575.591187,554.222107 575.591187,474.175354 575.591187,394.124023 
	C566.195496,394.124023 557.133606,394.124023 547.539429,394.124023 
	C547.539429,458.939423 547.539429,523.387451 547.539429,588.981689 
	C546.027466,586.926453 545.237244,585.885498 544.481567,584.820251 
	C512.614624,539.899780 480.772858,494.961456 448.875885,450.062317 
	C435.777740,431.624908 422.561310,413.271515 408.844177,394.144135 
	C401.756226,394.018524 394.667938,393.792175 387.580536,393.818665 
	C384.877716,393.828766 382.177032,394.418793 379.123444,395.279907 
M527.959412,286.498199 
	C551.375183,276.325378 569.598572,260.190887 581.627258,237.735168 
	C600.685425,202.156281 602.924377,164.719696 591.198181,126.510925 
	C581.888672,96.176697 563.041260,73.142479 534.642639,58.604588 
	C510.491852,46.241295 484.699890,42.887447 458.001953,46.952854 
	C417.598907,53.105194 387.837860,74.300674 369.982452,111.193413 
	C356.953613,138.113541 354.204071,166.752029 359.137573,195.980133 
	C364.743195,229.189972 379.909424,257.155609 408.551514,275.985413 
	C445.969666,300.584747 485.961304,302.251343 527.959412,286.498199 
M194.672256,632.996094 
	C195.804489,633.862244 196.922745,635.458374 198.071167,635.480347 
	C208.299744,635.676514 218.533661,635.594482 229.801086,635.594482 
	C205.986176,601.667725 182.824081,568.671021 159.483948,535.420654 
	C161.458618,534.878479 162.720551,534.435608 164.019745,534.189270 
	C214.260071,524.665588 230.891190,472.976807 213.193726,434.876831 
	C199.600388,405.612335 174.271606,394.021576 143.582916,393.247223 
	C113.949936,392.499512 84.283264,393.087097 54.631390,393.088074 
	C52.879581,393.088135 51.127769,393.088074 49.318211,393.088074 
	C49.318211,474.259857 49.318211,554.660767 49.318211,635.369263 
	C58.947403,635.369263 68.345551,635.369263 78.418839,635.369263 
	C78.418839,603.239380 78.418839,571.374878 78.418839,539.234009 
	C94.402817,539.234009 109.714928,539.318848 125.024696,539.166870 
	C128.331787,539.134033 130.379257,540.024292 132.348480,542.894531 
	C152.866989,572.801758 173.567017,602.584412 194.672256,632.996094 
M187.126648,232.360214 
	C166.800964,210.811111 146.475296,189.261993 126.017899,167.573227 
	C164.684494,128.621521 203.200394,89.821587 242.644699,50.086407 
	C229.883057,50.086407 218.608109,50.010517 207.336899,50.181282 
	C205.908417,50.202923 204.232269,51.234535 203.126938,52.280293 
	C197.805786,57.314793 192.617569,62.491043 187.424683,67.659691 
	C159.324921,95.628304 131.243134,123.614975 103.128571,151.568695 
	C101.864487,152.825546 100.386879,154.717697 98.933495,154.789413 
	C92.031296,155.130020 85.102997,154.941681 77.709724,154.941681 
	C77.709724,119.703308 77.709724,85.156105 77.709724,50.665627 
	C67.956261,50.665627 58.703316,50.665627 49.475063,50.665627 
	C49.475063,131.214767 49.475063,211.411957 49.475063,291.607635 
	C59.115620,291.607635 68.366104,291.607635 78.126816,291.607635 
	C78.126816,254.420685 78.126816,217.531799 78.126816,180.245758 
	C83.767105,180.245758 88.924225,180.550491 94.026268,180.151276 
	C98.263306,179.819748 101.110413,181.283844 103.950714,184.338226 
	C134.560989,217.255600 165.503738,249.867264 195.818985,283.052704 
	C201.874603,289.681671 207.773071,292.957062 216.707184,292.056091 
	C223.964233,291.324280 231.353836,291.922455 238.684448,291.889099 
	C239.892395,291.883575 241.099350,291.663177 243.090927,291.463440 
	C224.205109,271.533447 205.894928,252.210892 187.126648,232.360214 
M566.471191,347.223694 
	C569.569092,347.223694 572.666931,347.223694 575.717468,347.223694 
	C575.717468,343.775146 575.717468,341.038177 575.717468,338.227112 
	C491.011658,338.227112 406.620544,338.227112 321.991455,338.227112 
	C321.991455,341.209534 321.991455,343.943878 321.991455,347.222015 
	C403.321655,347.222015 484.401123,347.222015 566.471191,347.223694 
M160.499954,347.221497 
	C202.937881,347.221497 245.375793,347.221497 287.984436,347.221497 
	C287.984436,343.884338 287.984436,341.150909 287.984436,338.252014 
	C208.312393,338.252014 128.913391,338.252014 49.362209,338.252014 
	C49.362209,341.267487 49.362209,344.004761 49.362209,347.221558 
	C86.256523,347.221558 122.878235,347.221558 160.499954,347.221497 
M300.137207,379.500275 
	C300.134125,462.456787 300.131561,545.413330 300.127014,628.369812 
	C300.126587,636.302429 300.121307,636.310730 308.057739,635.775269 
	C308.509827,635.744812 308.940857,635.402100 309.872650,634.984863 
	C309.872650,633.337097 309.872681,631.540771 309.872650,629.744446 
	C309.871063,541.457397 309.869446,453.170380 309.868134,364.883331 
	C309.868134,364.050446 309.833527,363.215393 309.880371,362.385040 
	C310.120148,358.136627 306.969513,359.279785 304.686829,359.152893 
	C302.296814,359.020050 299.944122,358.805359 300.076996,362.510712 
	C300.267883,367.834564 300.133057,373.170044 300.137207,379.500275 
z"/>
<path fill="#B32423" opacity="1.000000" stroke="none" 
	d="
M527.620117,286.673828 
	C485.961304,302.251343 445.969666,300.584747 408.551514,275.985413 
	C379.909424,257.155609 364.743195,229.189972 359.137573,195.980133 
	C354.204071,166.752029 356.953613,138.113541 369.982452,111.193413 
	C387.837860,74.300674 417.598907,53.105194 458.001953,46.952854 
	C484.699890,42.887447 510.491852,46.241295 534.642639,58.604588 
	C563.041260,73.142479 581.888672,96.176697 591.198181,126.510925 
	C602.924377,164.719696 600.685425,202.156281 581.627258,237.735168 
	C569.598572,260.190887 551.375183,276.325378 527.620117,286.673828 
M388.429932,161.029053 
	C388.949127,171.804062 388.466919,182.739624 390.164001,193.325806 
	C396.867157,235.139221 425.644104,267.610107 468.649689,271.438873 
	C500.053009,274.234680 526.491394,263.979248 546.015869,238.808914 
	C573.748596,203.056732 574.675171,143.625153 548.671448,106.509186 
	C518.935547,64.066170 456.314606,57.231491 418.829498,92.534897 
	C399.439423,110.796410 390.702301,134.026047 388.429932,161.029053 
z"/>
<path fill="#B32322" opacity="1.000000" stroke="none" 
	d="
M379.654236,399.031799 
	C379.547333,398.615265 379.440430,398.198761 379.541290,397.319336 
	C379.894196,396.582764 380.016296,396.299133 380.522522,395.944153 
	C382.857330,395.590942 384.781067,395.080841 386.713348,395.045898 
	C394.273651,394.909058 401.836700,394.922394 409.398712,394.879883 
	C422.561310,413.271515 435.777740,431.624908 448.875885,450.062317 
	C480.772858,494.961456 512.614624,539.899780 544.481567,584.820251 
	C545.237244,585.885498 546.027466,586.926453 547.539429,588.981689 
	C547.539429,523.387451 547.539429,458.939423 547.539429,394.124023 
	C557.133606,394.124023 566.195496,394.124023 575.591187,394.124023 
	C575.591187,474.175354 575.591187,554.222107 575.591187,634.993408 
	C566.246765,634.993408 556.823120,635.106934 547.409668,634.850525 
	C546.225098,634.818237 544.867310,632.999329 543.970398,631.737610 
	C514.180298,589.829102 484.434540,547.889038 454.687073,505.950256 
	C439.958740,485.185791 425.250153,464.407227 410.488617,443.666412 
	C409.670227,442.516510 408.447815,441.654205 406.911499,441.130341 
	C406.272461,443.578339 406.016144,445.553986 406.015472,447.529694 
	C405.995239,507.141998 406.000336,566.754333 406.000610,626.366638 
	C406.000641,627.865234 406.356049,629.494141 405.880249,630.824219 
	C405.443451,632.045288 404.137695,633.811218 403.160919,633.846497 
	C396.039368,634.104126 388.904236,633.985229 381.819794,633.985229 
	C381.166931,632.059387 380.653290,630.544312 380.090637,628.687439 
	C380.072357,627.887390 380.103088,627.429077 380.401672,626.657104 
	C380.777527,625.692139 380.980011,625.040894 380.980164,624.389648 
	C380.995483,550.568054 381.002594,476.746429 380.940918,402.924866 
	C380.939850,401.626801 380.101776,400.329468 379.654236,399.031799 
z"/>
<path fill="#B32423" opacity="1.000000" stroke="none" 
	d="
M194.444473,632.698853 
	C173.567017,602.584412 152.866989,572.801758 132.348480,542.894531 
	C130.379257,540.024292 128.331787,539.134033 125.024696,539.166870 
	C109.714928,539.318848 94.402817,539.234009 78.418839,539.234009 
	C78.418839,571.374878 78.418839,603.239380 78.418839,635.369263 
	C68.345551,635.369263 58.947403,635.369263 49.318211,635.369263 
	C49.318211,554.660767 49.318211,474.259857 49.318211,393.088074 
	C51.127769,393.088074 52.879581,393.088135 54.631390,393.088074 
	C84.283264,393.087097 113.949936,392.499512 143.582916,393.247223 
	C174.271606,394.021576 199.600388,405.612335 213.193726,434.876831 
	C230.891190,472.976807 214.260071,524.665588 164.019745,534.189270 
	C162.720551,534.435608 161.458618,534.878479 159.483948,535.420654 
	C182.824081,568.671021 205.986176,601.667725 229.801086,635.594482 
	C218.533661,635.594482 208.299744,635.676514 198.071167,635.480347 
	C196.922745,635.458374 195.804489,633.862244 194.444473,632.698853 
M77.548111,417.577576 
	C77.364006,418.702362 77.020187,419.826965 77.019081,420.951935 
	C76.989624,450.896637 76.981529,480.841400 77.040009,510.786011 
	C77.042694,512.160950 77.697815,513.534607 78.742767,515.374817 
	C101.685341,515.210327 124.660393,515.715210 147.557068,514.604553 
	C159.356628,514.032288 170.075699,508.484406 178.047516,499.283691 
	C191.569763,483.676788 193.740417,465.672852 186.342957,447.012146 
	C178.505524,427.241516 162.006607,418.205078 141.699127,417.265137 
	C120.598732,416.288544 99.414276,417.127960 77.548111,417.577576 
z"/>
<path fill="#B32423" opacity="1.000000" stroke="none" 
	d="
M187.355698,232.624268 
	C205.894928,252.210892 224.205109,271.533447 243.090927,291.463440 
	C241.099350,291.663177 239.892395,291.883575 238.684448,291.889099 
	C231.353836,291.922455 223.964233,291.324280 216.707184,292.056091 
	C207.773071,292.957062 201.874603,289.681671 195.818985,283.052704 
	C165.503738,249.867264 134.560989,217.255600 103.950714,184.338226 
	C101.110413,181.283844 98.263306,179.819748 94.026268,180.151276 
	C88.924225,180.550491 83.767105,180.245758 78.126816,180.245758 
	C78.126816,217.531799 78.126816,254.420685 78.126816,291.607635 
	C68.366104,291.607635 59.115620,291.607635 49.475063,291.607635 
	C49.475063,211.411957 49.475063,131.214767 49.475063,50.665627 
	C58.703316,50.665627 67.956261,50.665627 77.709724,50.665627 
	C77.709724,85.156105 77.709724,119.703308 77.709724,154.941681 
	C85.102997,154.941681 92.031296,155.130020 98.933495,154.789413 
	C100.386879,154.717697 101.864487,152.825546 103.128571,151.568695 
	C131.243134,123.614975 159.324921,95.628304 187.424683,67.659691 
	C192.617569,62.491043 197.805786,57.314793 203.126938,52.280293 
	C204.232269,51.234535 205.908417,50.202923 207.336899,50.181282 
	C218.608109,50.010517 229.883057,50.086407 242.644699,50.086407 
	C203.200394,89.821587 164.684494,128.621521 126.017899,167.573227 
	C146.475296,189.261993 166.800964,210.811111 187.355698,232.624268 
z"/>
<path fill="#B02322" opacity="1.000000" stroke="none" 
	d="
M309.582397,51.152843 
	C309.608795,110.603409 309.641968,170.053970 309.658813,229.504532 
	C309.667755,260.978516 309.648254,292.452484 309.414185,324.487823 
	C309.028839,325.292419 308.930115,325.557709 308.890564,325.845032 
	C306.580292,325.895386 304.269989,325.945709 301.480347,325.715790 
	C300.933563,325.124451 300.746429,324.926697 300.439575,324.842194 
	C300.405243,310.022186 300.341949,295.202148 300.341492,280.382141 
	C300.339081,204.277328 300.352844,128.172516 300.571716,51.476570 
	C300.942047,50.617275 301.019470,50.327187 301.014771,50.015182 
	C301.014771,50.015182 301.000000,50.000000 301.446381,50.062721 
	C304.257294,50.089401 306.621826,50.053368 308.986359,50.017330 
	C308.986359,50.017330 309.000000,50.000000 309.018555,50.233860 
	C309.092010,50.797050 309.273773,51.025425 309.582397,51.152843 
z"/>
<path fill="#AC2425" opacity="1.000000" stroke="none" 
	d="
M565.975891,347.222839 
	C484.401123,347.222015 403.321655,347.222015 321.991455,347.222015 
	C321.991455,343.943878 321.991455,341.209534 321.991455,338.227112 
	C406.620544,338.227112 491.011658,338.227112 575.717468,338.227112 
	C575.717468,341.038177 575.717468,343.775146 575.717468,347.223694 
	C572.666931,347.223694 569.569092,347.223694 565.975891,347.222839 
z"/>
<path fill="#AC2425" opacity="1.000000" stroke="none" 
	d="
M159.999939,347.221527 
	C122.878235,347.221558 86.256523,347.221558 49.362209,347.221558 
	C49.362209,344.004761 49.362209,341.267487 49.362209,338.252014 
	C128.913391,338.252014 208.312393,338.252014 287.984436,338.252014 
	C287.984436,341.150909 287.984436,343.884338 287.984436,347.221497 
	C245.375793,347.221497 202.937881,347.221497 159.999939,347.221527 
z"/>
<path fill="#B35850" opacity="1.000000" stroke="none" 
	d="
M300.137238,379.000427 
	C300.133057,373.170044 300.267883,367.834564 300.076996,362.510712 
	C299.944122,358.805359 302.296814,359.020050 304.686829,359.152893 
	C306.969513,359.279785 310.120148,358.136627 309.880371,362.385040 
	C309.833527,363.215393 309.868134,364.050446 309.868134,364.883331 
	C309.869446,453.170380 309.871063,541.457397 309.872650,629.744446 
	C309.872681,631.540771 309.872650,633.337097 309.872650,634.984863 
	C308.940857,635.402100 308.509827,635.744812 308.057739,635.775269 
	C300.121307,636.310730 300.126587,636.302429 300.127014,628.369812 
	C300.131561,545.413330 300.134125,462.456787 300.137238,379.000427 
M301.883240,451.500000 
	C301.881683,510.155334 301.879669,568.810669 301.881317,627.466003 
	C301.881348,628.965149 301.584351,630.584106 302.059723,631.921997 
	C302.386566,632.841858 303.852783,633.983276 304.735016,633.923462 
	C305.880829,633.845764 307.388397,632.911438 307.935425,631.907288 
	C308.500214,630.870483 308.119141,629.308044 308.119171,627.975525 
	C308.120514,541.325623 308.118713,454.675690 308.115509,368.025787 
	C308.115448,366.526245 308.452393,364.897552 307.971710,363.567810 
	C307.583191,362.493134 306.283813,361.158295 305.239807,361.013824 
	C301.101196,360.441162 301.908600,363.663635 301.906158,366.016388 
	C301.876740,394.177582 301.884705,422.338776 301.883240,451.500000 
z"/>
<path fill="#A12A24" opacity="1.000000" stroke="none" 
	d="
M379.511810,399.476746 
	C380.101776,400.329468 380.939850,401.626801 380.940918,402.924866 
	C381.002594,476.746429 380.995483,550.568054 380.980164,624.389648 
	C380.980011,625.040894 380.777527,625.692139 380.218353,626.580200 
	C379.767181,626.817078 379.371063,626.790588 379.371063,626.790588 
	C379.370514,551.167603 379.369934,475.544647 379.511810,399.476746 
z"/>
<path fill="#A12A24" opacity="1.000000" stroke="none" 
	d="
M380.139679,629.029236 
	C380.653290,630.544312 381.166931,632.059387 381.819794,633.985229 
	C388.904236,633.985229 396.039368,634.104126 403.160919,633.846497 
	C404.137695,633.811218 405.443451,632.045288 405.880249,630.824219 
	C406.356049,629.494141 406.000641,627.865234 406.000610,626.366638 
	C406.000336,566.754333 405.995239,507.141998 406.015472,447.529694 
	C406.016144,445.553986 406.272461,443.578339 406.714294,441.321655 
	C407.083984,449.016937 407.202789,456.993164 407.205292,464.969482 
	C407.222351,519.851807 407.215118,574.734131 407.215668,629.616455 
	C407.215668,631.242126 407.215668,632.867859 407.215668,634.975403 
	C398.184204,634.975403 389.584015,634.975403 380.518616,634.584778 
	C379.826477,633.421753 379.599457,632.649414 379.372437,631.877014 
	C379.356110,631.210754 379.339752,630.544556 379.548340,629.531616 
	C379.773315,629.184937 380.139679,629.029236 380.139679,629.029236 
z"/>
<path fill="#A12A24" opacity="1.000000" stroke="none" 
	d="
M409.121460,394.512024 
	C401.836700,394.922394 394.273651,394.909058 386.713348,395.045898 
	C384.781067,395.080841 382.857330,395.590942 380.405975,395.606659 
	C379.746613,395.135223 379.610992,394.939911 379.475372,394.744568 
	C382.177032,394.418793 384.877716,393.828766 387.580536,393.818665 
	C394.667938,393.792175 401.756226,394.018524 409.121460,394.512024 
z"/>
<path fill="#C5847B" opacity="1.000000" stroke="none" 
	d="
M308.712280,49.752701 
	C306.621826,50.053368 304.257294,50.089401 301.452454,50.070995 
	C303.487488,49.840393 305.962830,49.664230 308.712280,49.752701 
z"/>
<path fill="#D67F75" opacity="1.000000" stroke="none" 
	d="
M379.222595,632.207153 
	C379.599457,632.649414 379.826477,633.421753 380.060181,634.505371 
	C379.735535,634.056824 379.404144,633.297058 379.222595,632.207153 
z"/>
<path fill="#D67F75" opacity="1.000000" stroke="none" 
	d="
M379.299408,395.012238 
	C379.610992,394.939911 379.746613,395.135223 379.998810,395.668091 
	C380.016296,396.299133 379.894196,396.582764 379.561401,396.991760 
	C379.290314,396.511322 379.206879,395.895599 379.299408,395.012238 
z"/>
<path fill="#D67F75" opacity="1.000000" stroke="none" 
	d="
M380.090637,628.687439 
	C380.139679,629.029236 379.773315,629.184937 379.574768,629.199158 
	C379.280090,628.669861 379.183929,628.126343 379.229431,627.186707 
	C379.371063,626.790588 379.767181,626.817078 379.950500,626.893921 
	C380.103088,627.429077 380.072357,627.887390 380.090637,628.687439 
z"/>
<path fill="#C5847B" opacity="1.000000" stroke="none" 
	d="
M309.165100,325.821533 
	C308.930115,325.557709 309.028839,325.292419 309.372528,324.943542 
	C309.518768,325.157990 309.479187,325.477997 309.165100,325.821533 
z"/>
<path fill="#C5847B" opacity="1.000000" stroke="none" 
	d="
M300.338348,325.097717 
	C300.746429,324.926697 300.933563,325.124451 301.052917,325.642395 
	C300.815613,325.683899 300.526398,325.518555 300.338348,325.097717 
z"/>
<path fill="#C5847B" opacity="1.000000" stroke="none" 
	d="
M309.701660,50.892662 
	C309.273773,51.025425 309.092010,50.797050 309.010986,50.242184 
	C309.263580,50.221924 309.542236,50.427200 309.701660,50.892662 
z"/>
<path fill="#C5847B" opacity="1.000000" stroke="none" 
	d="
M300.733582,50.072029 
	C301.019470,50.327187 300.942047,50.617275 300.598419,51.019051 
	C300.427032,50.811394 300.439728,50.470135 300.733582,50.072029 
z"/>
<path fill="#FDFDFE" opacity="1.000000" stroke="none" 
	d="
M388.536804,160.581482 
	C390.702301,134.026047 399.439423,110.796410 418.829498,92.534897 
	C456.314606,57.231491 518.935547,64.066170 548.671448,106.509186 
	C574.675171,143.625153 573.748596,203.056732 546.015869,238.808914 
	C526.491394,263.979248 500.053009,274.234680 468.649689,271.438873 
	C425.644104,267.610107 396.867157,235.139221 390.164001,193.325806 
	C388.466919,182.739624 388.949127,171.804062 388.536804,160.581482 
z"/>
<path fill="#FDFCFD" opacity="1.000000" stroke="none" 
	d="
M78.266586,417.173218 
	C99.414276,417.127960 120.598732,416.288544 141.699127,417.265137 
	C162.006607,418.205078 178.505524,427.241516 186.342957,447.012146 
	C193.740417,465.672852 191.569763,483.676788 178.047516,499.283691 
	C170.075699,508.484406 159.356628,514.032288 147.557068,514.604553 
	C124.660393,515.715210 101.685341,515.210327 78.470230,514.687866 
	C78.220657,481.724976 78.243622,449.449097 78.266586,417.173218 
z"/>
<path fill="#962E25" opacity="1.000000" stroke="none" 
	d="
M77.907349,417.375397 
	C78.243622,449.449097 78.220657,481.724976 78.123383,514.454834 
	C77.697815,513.534607 77.042694,512.160950 77.040009,510.786011 
	C76.981529,480.841400 76.989624,450.896637 77.019081,420.951935 
	C77.020187,419.826965 77.364006,418.702362 77.907349,417.375397 
z"/>
<path fill="#B52121" opacity="1.000000" stroke="none" 
	d="
M301.883057,451.000000 
	C301.884705,422.338776 301.876740,394.177582 301.906158,366.016388 
	C301.908600,363.663635 301.101196,360.441162 305.239807,361.013824 
	C306.283813,361.158295 307.583191,362.493134 307.971710,363.567810 
	C308.452393,364.897552 308.115448,366.526245 308.115509,368.025787 
	C308.118713,454.675690 308.120514,541.325623 308.119171,627.975525 
	C308.119141,629.308044 308.500214,630.870483 307.935425,631.907288 
	C307.388397,632.911438 305.880829,633.845764 304.735016,633.923462 
	C303.852783,633.983276 302.386566,632.841858 302.059723,631.921997 
	C301.584351,630.584106 301.881348,628.965149 301.881317,627.466003 
	C301.879669,568.810669 301.881683,510.155334 301.883057,451.000000 
z"/>
</svg>